<svg width="165" height="48" viewBox="0 0 165 48" fill="none" xmlns="http://www.w3.org/2000/svg">
<path d="M15.4102 22H11.8945V14.6875H5.03906V22H1.52344V4.9375H5.03906V11.8516H11.8945V4.9375H15.4102V22ZM25.6172 22C25.4609 21.6953 25.3477 21.3164 25.2773 20.8633C24.457 21.7773 23.3906 22.2344 22.0781 22.2344C20.8359 22.2344 19.8047 21.875 18.9844 21.1562C18.1719 20.4375 17.7656 19.5312 17.7656 18.4375C17.7656 17.0938 18.2617 16.0625 19.2539 15.3438C20.2539 14.625 21.6953 14.2617 23.5781 14.2539H25.1367V13.5273C25.1367 12.9414 24.9844 12.4727 24.6797 12.1211C24.3828 11.7695 23.9102 11.5938 23.2617 11.5938C22.6914 11.5938 22.2422 11.7305 21.9141 12.0039C21.5938 12.2773 21.4336 12.6523 21.4336 13.1289H18.0469C18.0469 12.3945 18.2734 11.7148 18.7266 11.0898C19.1797 10.4648 19.8203 9.97656 20.6484 9.625C21.4766 9.26562 22.4062 9.08594 23.4375 9.08594C25 9.08594 26.2383 9.48047 27.1523 10.2695C28.0742 11.0508 28.5352 12.1523 28.5352 13.5742V19.0703C28.543 20.2734 28.7109 21.1836 29.0391 21.8008V22H25.6172ZM22.8164 19.6445C23.3164 19.6445 23.7773 19.5352 24.1992 19.3164C24.6211 19.0898 24.9336 18.7891 25.1367 18.4141V16.2344H23.8711C22.1758 16.2344 21.2734 16.8203 21.1641 17.9922L21.1523 18.1914C21.1523 18.6133 21.3008 18.9609 21.5977 19.2344C21.8945 19.5078 22.3008 19.6445 22.8164 19.6445ZM34.3125 9.32031L34.418 10.7383C35.3164 9.63672 36.5312 9.08594 38.0625 9.08594C39.6953 9.08594 40.8164 9.73047 41.4258 11.0195C42.3164 9.73047 43.5859 9.08594 45.2344 9.08594C46.6094 9.08594 47.6328 9.48828 48.3047 10.293C48.9766 11.0898 49.3125 12.293 49.3125 13.9023V22H45.9141V13.9141C45.9141 13.1953 45.7734 12.6719 45.4922 12.3438C45.2109 12.0078 44.7148 11.8398 44.0039 11.8398C42.9883 11.8398 42.2852 12.3242 41.8945 13.293L41.9062 22H38.5195V13.9258C38.5195 13.1914 38.375 12.6602 38.0859 12.332C37.7969 12.0039 37.3047 11.8398 36.6094 11.8398C35.6484 11.8398 34.9531 12.2383 34.5234 13.0352V22H31.1367V9.32031H34.3125ZM57.7617 22.2344C55.9023 22.2344 54.3867 21.6641 53.2148 20.5234C52.0508 19.3828 51.4688 17.8633 51.4688 15.9648V15.6367C51.4688 14.3633 51.7148 13.2266 52.207 12.2266C52.6992 11.2188 53.3945 10.4453 54.293 9.90625C55.1992 9.35938 56.2305 9.08594 57.3867 9.08594C59.1211 9.08594 60.4844 9.63281 61.4766 10.7266C62.4766 11.8203 62.9766 13.3711 62.9766 15.3789V16.7617H54.9023C55.0117 17.5898 55.3398 18.2539 55.8867 18.7539C56.4414 19.2539 57.1406 19.5039 57.9844 19.5039C59.2891 19.5039 60.3086 19.0312 61.043 18.0859L62.707 19.9492C62.1992 20.668 61.5117 21.2305 60.6445 21.6367C59.7773 22.0352 58.8164 22.2344 57.7617 22.2344ZM57.375 11.8281C56.7031 11.8281 56.1562 12.0547 55.7344 12.5078C55.3203 12.9609 55.0547 13.6094 54.9375 14.4531H59.6484V14.1836C59.6328 13.4336 59.4297 12.8555 59.0391 12.4492C58.6484 12.0352 58.0938 11.8281 57.375 11.8281ZM64.3828 15.5664C64.3828 13.5898 64.8242 12.0156 65.707 10.8438C66.5977 9.67188 67.8125 9.08594 69.3516 9.08594C70.5859 9.08594 71.6055 9.54688 72.4102 10.4688V4H75.8086V22H72.75L72.5859 20.6523C71.7422 21.707 70.6562 22.2344 69.3281 22.2344C67.8359 22.2344 66.6367 21.6484 65.7305 20.4766C64.832 19.2969 64.3828 17.6602 64.3828 15.5664ZM67.7695 15.8125C67.7695 17 67.9766 17.9102 68.3906 18.543C68.8047 19.1758 69.4062 19.4922 70.1953 19.4922C71.2422 19.4922 71.9805 19.0508 72.4102 18.168V13.1641C71.9883 12.2812 71.2578 11.8398 70.2188 11.8398C68.5859 11.8398 67.7695 13.1641 67.7695 15.8125ZM93.4805 17.5234C93.4805 16.8594 93.2461 16.3516 92.7773 16C92.3086 15.6406 91.4648 15.2656 90.2461 14.875C89.0273 14.4766 88.0625 14.0859 87.3516 13.7031C85.4141 12.6562 84.4453 11.2461 84.4453 9.47266C84.4453 8.55078 84.7031 7.73047 85.2188 7.01172C85.7422 6.28516 86.4883 5.71875 87.457 5.3125C88.4336 4.90625 89.5273 4.70312 90.7383 4.70312C91.957 4.70312 93.043 4.92578 93.9961 5.37109C94.9492 5.80859 95.6875 6.42969 96.2109 7.23438C96.7422 8.03906 97.0078 8.95312 97.0078 9.97656H93.4922C93.4922 9.19531 93.2461 8.58984 92.7539 8.16016C92.2617 7.72266 91.5703 7.50391 90.6797 7.50391C89.8203 7.50391 89.1523 7.6875 88.6758 8.05469C88.1992 8.41406 87.9609 8.89062 87.9609 9.48438C87.9609 10.0391 88.2383 10.5039 88.793 10.8789C89.3555 11.2539 90.1797 11.6055 91.2656 11.9336C93.2656 12.5352 94.7227 13.2812 95.6367 14.1719C96.5508 15.0625 97.0078 16.1719 97.0078 17.5C97.0078 18.9766 96.4492 20.1367 95.332 20.9805C94.2148 21.8164 92.7109 22.2344 90.8203 22.2344C89.5078 22.2344 88.3125 21.9961 87.2344 21.5195C86.1562 21.0352 85.332 20.375 84.7617 19.5391C84.1992 18.7031 83.918 17.7344 83.918 16.6328H87.4453C87.4453 18.5156 88.5703 19.457 90.8203 19.457C91.6562 19.457 92.3086 19.2891 92.7773 18.9531C93.2461 18.6094 93.4805 18.1328 93.4805 17.5234ZM106.523 22C106.367 21.6953 106.254 21.3164 106.184 20.8633C105.363 21.7773 104.297 22.2344 102.984 22.2344C101.742 22.2344 100.711 21.875 99.8906 21.1562C99.0781 20.4375 98.6719 19.5312 98.6719 18.4375C98.6719 17.0938 99.168 16.0625 100.16 15.3438C101.16 14.625 102.602 14.2617 104.484 14.2539H106.043V13.5273C106.043 12.9414 105.891 12.4727 105.586 12.1211C105.289 11.7695 104.816 11.5938 104.168 11.5938C103.598 11.5938 103.148 11.7305 102.82 12.0039C102.5 12.2773 102.34 12.6523 102.34 13.1289H98.9531C98.9531 12.3945 99.1797 11.7148 99.6328 11.0898C100.086 10.4648 100.727 9.97656 101.555 9.625C102.383 9.26562 103.312 9.08594 104.344 9.08594C105.906 9.08594 107.145 9.48047 108.059 10.2695C108.98 11.0508 109.441 12.1523 109.441 13.5742V19.0703C109.449 20.2734 109.617 21.1836 109.945 21.8008V22H106.523ZM103.723 19.6445C104.223 19.6445 104.684 19.5352 105.105 19.3164C105.527 19.0898 105.84 18.7891 106.043 18.4141V16.2344H104.777C103.082 16.2344 102.18 16.8203 102.07 17.9922L102.059 18.1914C102.059 18.6133 102.207 18.9609 102.504 19.2344C102.801 19.5078 103.207 19.6445 103.723 19.6445ZM115.219 9.32031L115.324 10.7383C116.223 9.63672 117.438 9.08594 118.969 9.08594C120.602 9.08594 121.723 9.73047 122.332 11.0195C123.223 9.73047 124.492 9.08594 126.141 9.08594C127.516 9.08594 128.539 9.48828 129.211 10.293C129.883 11.0898 130.219 12.293 130.219 13.9023V22H126.82V13.9141C126.82 13.1953 126.68 12.6719 126.398 12.3438C126.117 12.0078 125.621 11.8398 124.91 11.8398C123.895 11.8398 123.191 12.3242 122.801 13.293L122.812 22H119.426V13.9258C119.426 13.1914 119.281 12.6602 118.992 12.332C118.703 12.0039 118.211 11.8398 117.516 11.8398C116.555 11.8398 115.859 12.2383 115.43 13.0352V22H112.043V9.32031H115.219ZM140.18 22C140.023 21.6953 139.91 21.3164 139.84 20.8633C139.02 21.7773 137.953 22.2344 136.641 22.2344C135.398 22.2344 134.367 21.875 133.547 21.1562C132.734 20.4375 132.328 19.5312 132.328 18.4375C132.328 17.0938 132.824 16.0625 133.816 15.3438C134.816 14.625 136.258 14.2617 138.141 14.2539H139.699V13.5273C139.699 12.9414 139.547 12.4727 139.242 12.1211C138.945 11.7695 138.473 11.5938 137.824 11.5938C137.254 11.5938 136.805 11.7305 136.477 12.0039C136.156 12.2773 135.996 12.6523 135.996 13.1289H132.609C132.609 12.3945 132.836 11.7148 133.289 11.0898C133.742 10.4648 134.383 9.97656 135.211 9.625C136.039 9.26562 136.969 9.08594 138 9.08594C139.562 9.08594 140.801 9.48047 141.715 10.2695C142.637 11.0508 143.098 12.1523 143.098 13.5742V19.0703C143.105 20.2734 143.273 21.1836 143.602 21.8008V22H140.18ZM137.379 19.6445C137.879 19.6445 138.34 19.5352 138.762 19.3164C139.184 19.0898 139.496 18.7891 139.699 18.4141V16.2344H138.434C136.738 16.2344 135.836 16.8203 135.727 17.9922L135.715 18.1914C135.715 18.6133 135.863 18.9609 136.16 19.2344C136.457 19.5078 136.863 19.6445 137.379 19.6445ZM145.172 15.5664C145.172 13.5898 145.613 12.0156 146.496 10.8438C147.387 9.67188 148.602 9.08594 150.141 9.08594C151.375 9.08594 152.395 9.54688 153.199 10.4688V4H156.598V22H153.539L153.375 20.6523C152.531 21.707 151.445 22.2344 150.117 22.2344C148.625 22.2344 147.426 21.6484 146.52 20.4766C145.621 19.2969 145.172 17.6602 145.172 15.5664ZM148.559 15.8125C148.559 17 148.766 17.9102 149.18 18.543C149.594 19.1758 150.195 19.4922 150.984 19.4922C152.031 19.4922 152.77 19.0508 153.199 18.168V13.1641C152.777 12.2812 152.047 11.8398 151.008 11.8398C149.375 11.8398 148.559 13.1641 148.559 15.8125ZM162.797 22H159.398V9.32031H162.797V22ZM159.199 6.03906C159.199 5.53125 159.367 5.11328 159.703 4.78516C160.047 4.45703 160.512 4.29297 161.098 4.29297C161.676 4.29297 162.137 4.45703 162.48 4.78516C162.824 5.11328 162.996 5.53125 162.996 6.03906C162.996 6.55469 162.82 6.97656 162.469 7.30469C162.125 7.63281 161.668 7.79688 161.098 7.79688C160.527 7.79688 160.066 7.63281 159.715 7.30469C159.371 6.97656 159.199 6.55469 159.199 6.03906Z" fill="black"/>
<path d="M8.16211 35.0469V41.8145C8.15755 42.7533 7.86133 43.5212 7.27344 44.1182C6.6901 44.7152 5.89714 45.0501 4.89453 45.123L4.5459 45.1367C3.45671 45.1367 2.58854 44.8428 1.94141 44.2549C1.29427 43.667 0.966146 42.8581 0.957031 41.8281V35.0469H2.25586V41.7871C2.25586 42.5072 2.4541 43.0677 2.85059 43.4688C3.24707 43.8652 3.81217 44.0635 4.5459 44.0635C5.28874 44.0635 5.85612 43.8652 6.24805 43.4688C6.64453 43.0723 6.84277 42.514 6.84277 41.7939V35.0469H8.16211ZM13.4805 38.8613L15.8662 35.0469H17.4111L14.2666 39.9824L17.4863 45H15.9277L13.4805 41.1172L11.0195 45H9.46777L12.6943 39.9824L9.54297 35.0469H11.0811L13.4805 38.8613ZM22.0186 42.3271C22.0186 41.8486 22.1507 41.4089 22.415 41.0078C22.6839 40.6068 23.1943 40.1396 23.9463 39.6064C23.5042 39.0687 23.208 38.6357 23.0576 38.3076C22.9072 37.9795 22.832 37.6536 22.832 37.3301C22.832 36.5736 23.0553 35.9811 23.502 35.5527C23.9486 35.1243 24.5547 34.9102 25.3203 34.9102C26.0039 34.9102 26.569 35.1107 27.0156 35.5117C27.4622 35.9082 27.6855 36.4095 27.6855 37.0156C27.6855 37.4167 27.583 37.7881 27.3779 38.1299C27.1774 38.4671 26.8242 38.8226 26.3184 39.1963L25.5869 39.7363L27.8018 42.3818C28.1117 41.7894 28.2666 41.1309 28.2666 40.4062H29.4082C29.4082 41.5684 29.1279 42.5322 28.5674 43.2979L29.9893 45H28.4717L27.8086 44.2139C27.4714 44.5146 27.0749 44.7448 26.6191 44.9043C26.168 45.0592 25.7077 45.1367 25.2383 45.1367C24.2676 45.1367 23.4883 44.8792 22.9004 44.3643C22.3125 43.8493 22.0186 43.1702 22.0186 42.3271ZM25.2383 44.1045C25.9082 44.1045 26.5212 43.8493 27.0771 43.3389L24.6504 40.4336L24.4248 40.5977C23.6637 41.1582 23.2832 41.7347 23.2832 42.3271C23.2832 42.8649 23.4564 43.2956 23.8027 43.6191C24.1536 43.9427 24.6322 44.1045 25.2383 44.1045ZM24.0967 37.2891C24.0967 37.7266 24.3656 38.2734 24.9033 38.9297L25.71 38.3623C26.0199 38.1436 26.2318 37.9362 26.3457 37.7402C26.4596 37.5397 26.5166 37.2982 26.5166 37.0156C26.5166 36.7103 26.4027 36.4574 26.1748 36.2568C25.9469 36.0518 25.6598 35.9492 25.3135 35.9492C24.9398 35.9492 24.6436 36.0768 24.4248 36.332C24.2061 36.5827 24.0967 36.9017 24.0967 37.2891ZM35.9775 41.1035V45H34.665V35.0469H38.3359C39.4251 35.0469 40.2773 35.3249 40.8926 35.8809C41.5124 36.4368 41.8223 37.1729 41.8223 38.0889C41.8223 39.055 41.5192 39.8001 40.9131 40.3242C40.3115 40.8438 39.4479 41.1035 38.3223 41.1035H35.9775ZM35.9775 40.0303H38.3359C39.0378 40.0303 39.5755 39.8662 39.9492 39.5381C40.3229 39.2054 40.5098 38.7269 40.5098 38.1025C40.5098 37.5101 40.3229 37.0361 39.9492 36.6807C39.5755 36.3252 39.0628 36.1406 38.4111 36.127H35.9775V40.0303ZM46.874 38.7383C46.6826 38.7064 46.4753 38.6904 46.252 38.6904C45.4225 38.6904 44.8597 39.0436 44.5635 39.75V45H43.2988V37.6035H44.5293L44.5498 38.458C44.9645 37.7972 45.5524 37.4668 46.3135 37.4668C46.5596 37.4668 46.7464 37.4987 46.874 37.5625V38.7383ZM47.5713 41.2334C47.5713 40.5088 47.7126 39.8571 47.9951 39.2783C48.2822 38.6995 48.6787 38.2529 49.1846 37.9385C49.695 37.624 50.276 37.4668 50.9277 37.4668C51.9349 37.4668 52.7484 37.8154 53.3682 38.5127C53.9925 39.21 54.3047 40.1374 54.3047 41.2949V41.3838C54.3047 42.1038 54.1657 42.751 53.8877 43.3252C53.6143 43.8949 53.2201 44.3392 52.7051 44.6582C52.1947 44.9772 51.6068 45.1367 50.9414 45.1367C49.9388 45.1367 49.1253 44.7881 48.501 44.0908C47.8812 43.3936 47.5713 42.4707 47.5713 41.3223V41.2334ZM48.8428 41.3838C48.8428 42.2041 49.0319 42.8626 49.4102 43.3594C49.793 43.8561 50.3034 44.1045 50.9414 44.1045C51.584 44.1045 52.0944 43.8538 52.4727 43.3525C52.8509 42.8467 53.04 42.1403 53.04 41.2334C53.04 40.4222 52.8464 39.766 52.459 39.2646C52.0762 38.7588 51.5658 38.5059 50.9277 38.5059C50.3034 38.5059 49.7998 38.7542 49.417 39.251C49.0342 39.7477 48.8428 40.4587 48.8428 41.3838ZM55.583 41.2402C55.583 40.1055 55.8519 39.194 56.3896 38.5059C56.9274 37.8132 57.6315 37.4668 58.502 37.4668C59.3678 37.4668 60.0537 37.763 60.5596 38.3555V34.5H61.8242V45H60.6621L60.6006 44.207C60.0947 44.8268 59.3906 45.1367 58.4883 45.1367C57.6315 45.1367 56.932 44.7858 56.3896 44.084C55.8519 43.3822 55.583 42.4661 55.583 41.3359V41.2402ZM56.8477 41.3838C56.8477 42.2223 57.0208 42.8786 57.3672 43.3525C57.7135 43.8265 58.1921 44.0635 58.8027 44.0635C59.6048 44.0635 60.1904 43.7035 60.5596 42.9834V39.5859C60.1813 38.8887 59.6003 38.54 58.8164 38.54C58.1966 38.54 57.7135 38.7793 57.3672 39.2578C57.0208 39.7363 56.8477 40.445 56.8477 41.3838ZM68.3594 44.2686C67.8672 44.8473 67.1449 45.1367 66.1924 45.1367C65.404 45.1367 64.8024 44.9089 64.3877 44.4531C63.9775 43.9928 63.7702 43.3138 63.7656 42.416V37.6035H65.0303V42.3818C65.0303 43.5029 65.486 44.0635 66.3975 44.0635C67.3636 44.0635 68.0062 43.7035 68.3252 42.9834V37.6035H69.5898V45H68.3867L68.3594 44.2686ZM74.4844 44.1045C74.9355 44.1045 75.3298 43.9678 75.667 43.6943C76.0042 43.4209 76.1911 43.0791 76.2275 42.6689H77.4238C77.401 43.0928 77.2552 43.4961 76.9863 43.8789C76.7174 44.2617 76.3574 44.5671 75.9062 44.7949C75.4596 45.0228 74.9857 45.1367 74.4844 45.1367C73.4772 45.1367 72.6751 44.8018 72.0781 44.1318C71.4857 43.4574 71.1895 42.5368 71.1895 41.3701V41.1582C71.1895 40.4382 71.3216 39.7979 71.5859 39.2373C71.8503 38.6768 72.2285 38.2415 72.7207 37.9316C73.2174 37.6217 73.8031 37.4668 74.4775 37.4668C75.307 37.4668 75.9951 37.7152 76.542 38.2119C77.0934 38.7087 77.3874 39.3535 77.4238 40.1465H76.2275C76.1911 39.668 76.0088 39.276 75.6807 38.9707C75.3571 38.6608 74.9561 38.5059 74.4775 38.5059C73.835 38.5059 73.3359 38.7383 72.9805 39.2031C72.6296 39.6634 72.4541 40.3311 72.4541 41.2061V41.4453C72.4541 42.2975 72.6296 42.9538 72.9805 43.4141C73.3314 43.8743 73.8327 44.1045 74.4844 44.1045ZM80.5615 35.8125V37.6035H81.9424V38.5811H80.5615V43.168C80.5615 43.4642 80.623 43.6875 80.7461 43.8379C80.8691 43.9837 81.0788 44.0566 81.375 44.0566C81.5208 44.0566 81.7214 44.0293 81.9766 43.9746V45C81.6439 45.0911 81.3203 45.1367 81.0059 45.1367C80.4408 45.1367 80.0146 44.9658 79.7275 44.624C79.4404 44.2822 79.2969 43.7969 79.2969 43.168V38.5811H77.9502V37.6035H79.2969V35.8125H80.5615ZM87.0967 45V35.0469H89.9062C90.7721 35.0469 91.5378 35.2383 92.2031 35.6211C92.8685 36.0039 93.3812 36.5485 93.7412 37.2549C94.1058 37.9613 94.2904 38.7725 94.2949 39.6885V40.3242C94.2949 41.263 94.1126 42.0856 93.748 42.792C93.388 43.4984 92.8708 44.0407 92.1963 44.4189C91.5264 44.7972 90.7448 44.9909 89.8516 45H87.0967ZM88.4092 36.127V43.9268H89.79C90.8018 43.9268 91.5879 43.6123 92.1484 42.9834C92.7135 42.3545 92.9961 41.459 92.9961 40.2969V39.7158C92.9961 38.5856 92.7295 37.7083 92.1963 37.084C91.6676 36.4551 90.9157 36.1361 89.9404 36.127H88.4092ZM99.1553 45.1367C98.1527 45.1367 97.3369 44.8086 96.708 44.1523C96.0791 43.4915 95.7646 42.6097 95.7646 41.5068V41.2744C95.7646 40.5407 95.9036 39.8867 96.1816 39.3125C96.4642 38.7337 96.8561 38.2826 97.3574 37.959C97.8633 37.6309 98.4102 37.4668 98.998 37.4668C99.9596 37.4668 100.707 37.7835 101.24 38.417C101.773 39.0505 102.04 39.9574 102.04 41.1377V41.6641H97.0293C97.0475 42.3932 97.2594 42.9834 97.665 43.4346C98.0752 43.8812 98.5947 44.1045 99.2236 44.1045C99.6702 44.1045 100.049 44.0133 100.358 43.8311C100.668 43.6488 100.939 43.4072 101.172 43.1064L101.944 43.708C101.325 44.6605 100.395 45.1367 99.1553 45.1367ZM98.998 38.5059C98.4876 38.5059 98.0592 38.6927 97.7129 39.0664C97.3665 39.4355 97.1523 39.9551 97.0703 40.625H100.775V40.5293C100.739 39.8867 100.566 39.39 100.256 39.0391C99.946 38.6836 99.5267 38.5059 98.998 38.5059ZM107.816 43.0381C107.816 42.6963 107.687 42.432 107.427 42.2451C107.172 42.0537 106.723 41.8896 106.08 41.7529C105.442 41.6162 104.934 41.4521 104.556 41.2607C104.182 41.0693 103.904 40.8415 103.722 40.5771C103.544 40.3128 103.455 39.9984 103.455 39.6338C103.455 39.0277 103.71 38.515 104.221 38.0957C104.736 37.6764 105.392 37.4668 106.189 37.4668C107.028 37.4668 107.707 37.6833 108.227 38.1162C108.751 38.5492 109.013 39.1029 109.013 39.7773H107.741C107.741 39.431 107.593 39.1325 107.297 38.8818C107.005 38.6312 106.636 38.5059 106.189 38.5059C105.729 38.5059 105.369 38.6061 105.109 38.8066C104.85 39.0072 104.72 39.2692 104.72 39.5928C104.72 39.8981 104.84 40.1283 105.082 40.2832C105.324 40.4382 105.759 40.5863 106.388 40.7275C107.021 40.8688 107.534 41.0374 107.926 41.2334C108.318 41.4294 108.607 41.6663 108.794 41.9443C108.985 42.2178 109.081 42.5527 109.081 42.9492C109.081 43.61 108.817 44.141 108.288 44.542C107.759 44.9385 107.074 45.1367 106.23 45.1367C105.638 45.1367 105.114 45.0319 104.658 44.8223C104.202 44.6126 103.845 44.321 103.585 43.9473C103.33 43.569 103.202 43.1611 103.202 42.7236H104.467C104.49 43.1475 104.658 43.4847 104.973 43.7354C105.292 43.9814 105.711 44.1045 106.23 44.1045C106.709 44.1045 107.092 44.0088 107.379 43.8174C107.671 43.6214 107.816 43.3617 107.816 43.0381ZM112.103 45H110.838V37.6035H112.103V45ZM110.735 35.6416C110.735 35.4365 110.797 35.2633 110.92 35.1221C111.048 34.9808 111.234 34.9102 111.48 34.9102C111.727 34.9102 111.913 34.9808 112.041 35.1221C112.169 35.2633 112.232 35.4365 112.232 35.6416C112.232 35.8467 112.169 36.0176 112.041 36.1543C111.913 36.291 111.727 36.3594 111.48 36.3594C111.234 36.3594 111.048 36.291 110.92 36.1543C110.797 36.0176 110.735 35.8467 110.735 35.6416ZM113.832 41.2402C113.832 40.0872 114.099 39.1712 114.632 38.4922C115.165 37.8086 115.871 37.4668 116.751 37.4668C117.653 37.4668 118.357 37.7858 118.863 38.4238L118.925 37.6035H120.08V44.8223C120.08 45.7793 119.795 46.5335 119.226 47.085C118.66 47.6364 117.899 47.9121 116.942 47.9121C116.409 47.9121 115.887 47.7982 115.377 47.5703C114.867 47.3424 114.477 47.0303 114.208 46.6338L114.864 45.875C115.407 46.5449 116.07 46.8799 116.854 46.8799C117.469 46.8799 117.947 46.7067 118.289 46.3604C118.635 46.014 118.809 45.5264 118.809 44.8975V44.2617C118.303 44.8451 117.612 45.1367 116.737 45.1367C115.871 45.1367 115.17 44.7881 114.632 44.0908C114.099 43.3936 113.832 42.4434 113.832 41.2402ZM115.104 41.3838C115.104 42.2178 115.274 42.874 115.616 43.3525C115.958 43.8265 116.437 44.0635 117.052 44.0635C117.849 44.0635 118.435 43.7012 118.809 42.9766V39.5996C118.421 38.8932 117.84 38.54 117.065 38.54C116.45 38.54 115.969 38.7793 115.623 39.2578C115.277 39.7363 115.104 40.445 115.104 41.3838ZM123.19 37.6035L123.231 38.5332C123.797 37.8223 124.535 37.4668 125.446 37.4668C127.009 37.4668 127.798 38.3486 127.812 40.1123V45H126.547V40.1055C126.542 39.5723 126.419 39.1781 126.178 38.9229C125.941 38.6676 125.569 38.54 125.063 38.54C124.653 38.54 124.293 38.6494 123.983 38.8682C123.674 39.0869 123.432 39.374 123.259 39.7295V45H121.994V37.6035H123.19ZM132.788 45.1367C131.785 45.1367 130.97 44.8086 130.341 44.1523C129.712 43.4915 129.397 42.6097 129.397 41.5068V41.2744C129.397 40.5407 129.536 39.8867 129.814 39.3125C130.097 38.7337 130.489 38.2826 130.99 37.959C131.496 37.6309 132.043 37.4668 132.631 37.4668C133.592 37.4668 134.34 37.7835 134.873 38.417C135.406 39.0505 135.673 39.9574 135.673 41.1377V41.6641H130.662C130.68 42.3932 130.892 42.9834 131.298 43.4346C131.708 43.8812 132.228 44.1045 132.856 44.1045C133.303 44.1045 133.681 44.0133 133.991 43.8311C134.301 43.6488 134.572 43.4072 134.805 43.1064L135.577 43.708C134.957 44.6605 134.028 45.1367 132.788 45.1367ZM132.631 38.5059C132.12 38.5059 131.692 38.6927 131.346 39.0664C130.999 39.4355 130.785 39.9551 130.703 40.625H134.408V40.5293C134.372 39.8867 134.199 39.39 133.889 39.0391C133.579 38.6836 133.16 38.5059 132.631 38.5059ZM140.718 38.7383C140.526 38.7064 140.319 38.6904 140.096 38.6904C139.266 38.6904 138.703 39.0436 138.407 39.75V45H137.143V37.6035H138.373L138.394 38.458C138.808 37.7972 139.396 37.4668 140.157 37.4668C140.403 37.4668 140.59 37.4987 140.718 37.5625V38.7383Z" fill="#0030AD"/>
</svg>
